# xmcd
#
# Track frame offsets:
#	150
#	9663
#	20532
#	30885
#	42061
#	53048
#	67730
#	78033
#	87253
#
# Disc length: 1288 seconds
#
# Revision: 0
# Processed by: cddbd v1.5.2PL0 Copyright (c) Steve Scherf et al.
# Submitted via: EasyCDDAExtractor 8.2.3.1
#
DISCID=54050609
DTITLE=Waylon Jennings - Heartaches By The Number
DYEAR=1900
DGENRE=Country
TTITLE0=Heartaches By The Number
TTITLE1=Tiger By The Tail
TTITLE2=Foolin' Around
TTITLE3=(That's What You Get) For Lovin' Me
TTITLE4=You're Gonna Wonder About Me
TTITLE5=Folsom Prison Blues
TTITLE6=Busted
TTITLE7=Time To Bum Again
TTITLE8=Leavin' Town
EXTD=
EXTT0=
EXTT1=
EXTT2=
EXTT3=
EXTT4=
EXTT5=
EXTT6=
EXTT7=
EXTT8=
PLAYORDER=
